<?xml version="1.0" encoding="utf-8"?>
<!-- Generator: Adobe Illustrator 26.2.1, SVG Export Plug-In . SVG Version: 6.00 Build 0)  -->
<svg version="1.1" id="Layer_1" xmlns="http://www.w3.org/2000/svg" xmlns:xlink="http://www.w3.org/1999/xlink" x="0px" y="0px"
	 viewBox="0 0 504.5 240.2" style="enable-background:new 0 0 504.5 240.2;" xml:space="preserve">
<style type="text/css">
	.st0{fill:#1F2223;}
	.st1{fill:url(#SVGID_1_);}
	.st2{fill:url(#SVGID_00000036934708986433133340000018308698293397659020_);}
	.st3{fill:url(#SVGID_00000106829785227896012000000014862877706406764698_);}
</style>
<g>
	<polygon class="st0" points="211.8,67.1 211.8,176.9 197.2,185.3 194.9,186.6 193.5,187.4 192.9,187.8 192.9,187.8 189.9,189.5 
		189.9,189.5 182.6,193.8 175.3,198 168,202.2 167.6,202.4 167.6,202.4 160.6,206.4 160.1,206.7 153.3,210.6 153.3,210.6 146,214.9 
		146,214.9 142.3,217 138.7,219.1 138.7,219.1 131.4,223.3 116.8,231.7 102.2,223.3 94.9,219.1 94.9,219.1 91.3,217 87.5,214.9 
		87.5,214.9 80.2,210.6 80.2,210.6 73.4,206.7 72.9,206.4 66,202.4 66,202.4 65.6,202.2 58.3,198 51,193.8 43.7,189.5 43.7,189.5 
		40.7,187.8 40.7,187.8 40.1,187.4 38.6,186.6 36.4,185.3 21.8,176.9 21.8,67.1 36.4,58.7 40.7,56.2 40.7,56.2 43.7,54.5 43.7,54.5 
		65.6,41.8 65.6,50.3 72.9,54.5 69.9,56.2 65.6,58.7 51,67.1 44.6,70.8 43.7,71.4 36.4,75.6 36.4,143.1 36.4,143.9 36.4,168.4 
		43.7,172.7 44.6,173.2 51,176.9 65.6,185.3 69.9,187.8 72.9,189.5 80.2,193.8 87.5,198 102.2,206.4 109.5,210.6 109.5,176.9 
		116.8,181.1 124.1,176.9 124.1,210.6 131.4,206.4 146,198 153.3,193.8 160.6,189.5 163.7,187.8 168,185.3 182.6,176.9 189,173.2 
		189.9,172.7 197.2,168.4 197.2,75.6 189.9,71.4 189,70.8 182.6,67.1 168,58.7 163.7,56.2 160.6,54.5 168,50.3 168,41.8 189.9,54.5 
		189.9,54.5 192.9,56.2 192.9,56.2 197.2,58.7 	"/>
	<linearGradient id="SVGID_1_" gradientUnits="userSpaceOnUse" x1="21.761" y1="136.7784" x2="211.8156" y2="136.7784">
		<stop  offset="0" style="stop-color:#E6007E"/>
		<stop  offset="6.384945e-02" style="stop-color:#E6027A"/>
		<stop  offset="0.1962" style="stop-color:#E72371"/>
		<stop  offset="0.3346" style="stop-color:#E83168"/>
		<stop  offset="0.4787" style="stop-color:#E83960"/>
		<stop  offset="0.6308" style="stop-color:#E83F5A"/>
		<stop  offset="0.7962" style="stop-color:#E84256"/>
		<stop  offset="1" style="stop-color:#E94354"/>
	</linearGradient>
	<path class="st1" d="M60.6,50.5v2.7l2.3,1.3l-14.4,8.3l-6.4,3.7L41.2,67l-7.3,4.2l-2.5,1.4v2.9v67.5v0.8v24.5v2.9l2.5,1.4l7.3,4.2
		l0.9,0.5l6.4,3.7l14.6,8.4l4.3,2.5l3,1.7l7.3,4.2l7.3,4.2l14.6,8.4l7.3,4.2l7.5,4.3v-8.7v-25.1l2.3,1.3l2.3-1.3v25.1v8.7l7.5-4.3
		l7.3-4.2l14.6-8.4l7.3-4.2l7.3-4.2l3-1.7l4.3-2.5l14.6-8.4l6.4-3.7l0.9-0.5l7.3-4.2l2.5-1.4v-2.9V75.6v-2.9l-2.5-1.4l-7.3-4.2
		l-0.9-0.5l-6.4-3.7l-14.4-8.3l2.3-1.3v-2.7l14.4,8.3l0.8,0.5l2.2,1.3l1.2,0.7h0l3.1,1.8l12.1,7V174l-12.1,7l-2.3,1.3l-0.9,0.5h0
		l-1.2,0.7l-1.8,1.1h0l-1.2,0.7l-7.3,4.2l-7.3,4.2l-6.5,3.8h0l-1.2,0.7l-6.9,4l-0.5,0.3l-6.8,3.9l-2.5,1.5v0l-3.6,2.1h0l-1.2,0.7
		l-3.8,2.2l-3.5,2l-2.5,1.5v0l-4.8,2.8l-12.1,7l-12.1-7l-4.8-2.8v0l-2.5-1.4l-3.5-2l-3.8-2.2l-1.2-0.7h0l-3.6-2.1v0l-2.5-1.4
		l-6.8-3.9l-0.5-0.3l-6.9-4l-0.6-0.3l-7.1-4.1l-7.3-4.2l-7.3-4.2l-0.8-0.5l-2.2-1.3l-1.2-0.7h0l-0.9-0.5l-2.2-1.3l-12.1-7V70l12.1-7
		l3.1-1.8h0l1.2-0.7l1.8-1.1h0l1.2-0.7L60.6,50.5 M168,41.8v8.4l-7.3,4.2l3,1.7l4.3,2.5l14.6,8.4l6.4,3.7l0.9,0.5l7.3,4.2v92.9
		l-7.3,4.2l-0.9,0.5l-6.4,3.7l-14.6,8.4l-4.3,2.5l-3,1.7l-7.3,4.2L146,198l-14.6,8.4l-7.3,4.2v-33.8l-7.3,4.2l-7.3-4.2v33.8
		l-7.3-4.2L87.5,198l-7.3-4.2l-7.3-4.2l-3-1.7l-4.3-2.5L51,176.9l-6.4-3.7l-0.9-0.5l-7.3-4.2v-24.5v-0.8V75.6l7.3-4.2l0.9-0.5
		l6.4-3.7l14.6-8.4l4.3-2.5l3-1.7l-7.3-4.2v-8.4L43.7,54.5h0l-3,1.7h0l-4.3,2.5l-14.6,8.4v109.7l14.6,8.4l2.2,1.3l1.4,0.8l0.6,0.4h0
		l3,1.7h0l7.3,4.2l7.3,4.2l7.3,4.2l0.4,0.2h0l6.9,4l0.5,0.3l6.8,3.9v0l7.3,4.2h0l3.8,2.2l3.5,2v0l7.3,4.2l14.6,8.4l14.6-8.4l7.3-4.2
		v0l3.5-2l3.8-2.2h0l7.3-4.2v0l6.8-3.9l0.5-0.3l6.9-4h0l0.4-0.2l7.3-4.2l7.3-4.2l7.3-4.2h0l3-1.7h0l0.6-0.4l1.4-0.8l2.2-1.3
		l14.6-8.4V67.1l-14.6-8.4l-4.3-2.5h0l-3-1.7h0L168,41.8L168,41.8z"/>
</g>
<linearGradient id="SVGID_00000063633116818480715550000009914710623180003224_" gradientUnits="userSpaceOnUse" x1="62.6411" y1="50.9752" x2="177.117" y2="165.4511">
	<stop  offset="0" style="stop-color:#E5077D"/>
	<stop  offset="0.1444" style="stop-color:#E62374"/>
	<stop  offset="0.307" style="stop-color:#E7316A"/>
	<stop  offset="0.4731" style="stop-color:#E83961"/>
	<stop  offset="0.642" style="stop-color:#E83E5A"/>
	<stop  offset="0.8153" style="stop-color:#E84256"/>
	<stop  offset="1" style="stop-color:#E94354"/>
</linearGradient>
<path style="fill:url(#SVGID_00000063633116818480715550000009914710623180003224_);" d="M153.3,33.4v8.4L146,46l-7.3-4.2v-0.2h-0.4
	l-6.9-4l-7.3-4.2V160l-7.3,4.2l-7.3-4.2V33.4l-7.3,4.2l-6.9,4h-0.4v0.2L87.5,46l-7.3-4.2v-8.4l7.3-4.2h0l3.8-2.2l3.5-2v0l7.3-4.2
	l14.6-8.4l14.6,8.4l7.3,4.2v0l3.5,2l3.8,2.2h0L153.3,33.4z M94.9,58.7v126.6l-14.6-8.4V160l-2.5-1.4l-4.8-2.8l-7.3-4.2l-7.3-4.2
	l-5.9-3.4l-1.4-0.8V84l7.3-4.2l7.3-4.2l7.3-4.2l0.9-0.5l6.4-3.7L94.9,58.7z M80.2,84l-2.5,1.4l-4.8,2.8l-7.3,4.2v42.2l7.3,4.2
	l7.3,4.2V84z M175.3,79.8l-7.3-4.2v76l-7.3,4.2l-4.8,2.8l-2.5,1.4V67.1l-14.6-8.4v126.6l14.6-8.4l6.4-3.7l0.9-0.5l7.3-4.2l7.3-4.2
	l7.3-4.2V84L175.3,79.8z"/>
<linearGradient id="SVGID_00000021816294707427397170000017412437324921508486_" gradientUnits="userSpaceOnUse" x1="361.7733" y1="85.0584" x2="361.7733" y2="158.9577">
	<stop  offset="0" style="stop-color:#E6007E"/>
	<stop  offset="6.384945e-02" style="stop-color:#E6027A"/>
	<stop  offset="0.1962" style="stop-color:#E72371"/>
	<stop  offset="0.3346" style="stop-color:#E83168"/>
	<stop  offset="0.4787" style="stop-color:#E83960"/>
	<stop  offset="0.6308" style="stop-color:#E83F5A"/>
	<stop  offset="0.7962" style="stop-color:#E84256"/>
	<stop  offset="1" style="stop-color:#E94354"/>
</linearGradient>
<path style="fill:url(#SVGID_00000021816294707427397170000017412437324921508486_);" d="M284.1,88.2c3.4,2.1,6.1,5,8.1,8.6
	c2,3.6,3,7.6,3,12.1c0,4.4-1,8.5-3,12.1c-2,3.6-4.7,6.5-8.1,8.6c-3.4,2.1-7.1,3.1-11.2,3.1h-17.8V158h-14.3V85.1h14.3h17.8
	C277,85.1,280.7,86.1,284.1,88.2z M278.7,115.6c1.5-1.8,2.3-4.1,2.3-6.8c0-2.7-0.8-4.9-2.3-6.7c-1.6-1.8-3.4-2.7-5.7-2.7h-17.8v19
	h17.8C275.2,118.3,277.2,117.4,278.7,115.6z M346.7,88.2c3.4,2.1,6.1,5,8.1,8.6c2,3.6,3,7.6,3,12.1c0,4.4-1,8.5-3,12.1
	c-2,3.6-4.7,6.5-8.1,8.6c-3.4,2.1-7.1,3.1-11.2,3.1h-17.8V158h-14.3V85.1h14.3h17.8C339.6,85.1,343.3,86.1,346.7,88.2z M341.3,115.6
	c1.5-1.8,2.3-4.1,2.3-6.8c0-2.7-0.8-4.9-2.3-6.7c-1.5-1.8-3.4-2.7-5.7-2.7h-17.8v19h17.8C337.8,118.3,339.8,117.4,341.3,115.6z
	 M416.2,85.1v14.4h-18.3V158h-14.4V99.5h-18.3V85.1H416.2z M482.7,131.3c0,5-1.2,9.7-3.7,13.9c-2.5,4.2-5.8,7.6-10.1,10.1
	c-4.2,2.5-8.9,3.7-13.9,3.7h-2.9c-5,0-9.7-1.2-13.9-3.7c-4.2-2.5-7.6-5.8-10.1-10.1c-2.5-4.2-3.7-8.9-3.7-13.9V85.1h14.3v46.2
	c0,2.4,0.6,4.7,1.8,6.7c1.2,2,2.8,3.7,4.9,4.9c2,1.2,4.3,1.8,6.7,1.8h2.9c2.4,0,4.7-0.6,6.7-1.8c2-1.2,3.7-2.8,4.9-4.9
	c1.2-2,1.8-4.3,1.8-6.7V85.1h14.3V131.3z"/>
</svg>
