<svg id="Layer_1" data-name="Layer 1" xmlns="http://www.w3.org/2000/svg" xmlns:xlink="http://www.w3.org/1999/xlink" viewBox="0 0 460.93 219.46"><defs><style>.cls-1{fill:#1f2223;}.cls-2{fill:url(#linear-gradient);}.cls-3{fill:url(#linear-gradient-2);}.cls-4{fill:url(#linear-gradient-3);}</style><linearGradient id="linear-gradient" y1="124.5" x2="190.05" y2="124.5" gradientUnits="userSpaceOnUse"><stop offset="0" stop-color="#e6007e"/><stop offset="0.09" stop-color="#e70d76"/><stop offset="0.28" stop-color="#e82567"/><stop offset="0.49" stop-color="#e8365c"/><stop offset="0.72" stop-color="#e94056"/><stop offset="1" stop-color="#e94354"/></linearGradient><linearGradient id="linear-gradient-2" x1="40.88" y1="38.7" x2="155.36" y2="153.17" gradientUnits="userSpaceOnUse"><stop offset="0" stop-color="#e5077d"/><stop offset="0.24" stop-color="#e7216b"/><stop offset="0.48" stop-color="#e8345e"/><stop offset="0.73" stop-color="#e93f57"/><stop offset="1" stop-color="#e94354"/></linearGradient><linearGradient id="linear-gradient-3" x1="340.01" y1="72.78" x2="340.01" y2="146.68" xlink:href="#linear-gradient"/></defs><polygon class="cls-1" points="190.06 54.87 190.06 164.59 175.44 173.03 173.19 174.33 171.76 175.16 171.14 175.52 171.13 175.52 168.13 177.25 168.13 177.25 160.81 181.47 153.51 185.7 146.2 189.92 145.82 190.14 145.81 190.14 138.89 194.14 138.37 194.43 131.58 198.35 131.58 198.36 124.28 202.57 124.27 202.57 120.49 204.76 116.96 206.79 116.96 206.8 109.65 211.01 95.03 219.46 80.41 211.01 73.1 206.8 73.1 206.79 69.56 204.76 65.79 202.57 65.78 202.57 58.48 198.36 58.48 198.35 51.68 194.43 51.17 194.14 44.24 190.14 44.23 190.14 43.86 189.92 36.55 185.7 29.24 181.47 21.93 177.25 21.92 177.25 18.92 175.52 18.91 175.52 18.29 175.16 16.87 174.33 14.62 173.03 0 164.59 0 54.87 14.62 46.43 18.91 43.94 18.92 43.94 21.92 42.2 21.93 42.2 43.86 29.54 43.86 37.98 51.17 42.2 48.16 43.94 43.86 46.43 29.24 54.87 22.83 58.56 21.93 59.08 14.62 63.3 14.62 130.84 14.62 131.66 14.62 156.16 21.93 160.38 22.83 160.9 29.24 164.59 43.86 173.03 48.16 175.52 51.17 177.25 58.48 181.47 65.79 185.7 80.41 194.13 87.72 198.35 87.72 164.6 95.03 168.82 102.34 164.6 102.34 198.35 109.65 194.13 124.27 185.7 131.58 181.47 138.89 177.25 141.89 175.52 146.2 173.03 160.81 164.59 167.22 160.9 168.13 160.38 175.44 156.16 175.44 63.3 168.13 59.08 167.22 58.56 160.81 54.87 146.2 46.43 141.89 43.94 138.89 42.2 146.2 37.98 146.2 29.54 168.13 42.2 168.13 42.2 171.13 43.94 171.14 43.94 175.44 46.43 190.06 54.87"/><path class="cls-2" d="M38.86,38.2v2.67l2.31,1.33L26.74,50.54l-6.4,3.69-.91.52L12.12,59l-2.5,1.45V159l2.5,1.45,7.31,4.22.91.52,6.4,3.69,14.62,8.44,4.3,2.49,3,1.73L56,185.8,63.29,190l14.62,8.43,7.31,4.22,7.5,4.33V173.26L95,174.59l2.31-1.33V207l7.5-4.33,7.31-4.22L126.77,190l7.31-4.23,7.31-4.22,3-1.73,4.31-2.49,14.61-8.44,6.41-3.69.91-.52,7.31-4.22,2.5-1.45V60.42L177.94,59l-7.32-4.22-.9-.52-6.4-3.69L148.88,42.2l2.32-1.33V38.2l14.42,8.33.85.49,2.16,1.25,1.17.67h0l3.13,1.82,12.12,7V161.7l-12.11,7L170.67,170l-.87.51h0l-1.16.67-1.84,1.06h0l-1.17.67-7.31,4.22-7.3,4.23-6.53,3.77h0l-1.16.67-6.91,4-.52.3-6.8,3.92-2.5,1.45h0l-3.64,2.1h0l-1.16.68L118,200.42l-3.54,2-2.5,1.45h0l-4.81,2.78-12.12,7-12.13-7-4.8-2.77h0l-2.51-1.44-3.52-2-3.78-2.18-1.17-.68h0l-3.64-2.1h0L61,194l-6.82-3.93-.49-.28-6.93-4-.55-.32-7.14-4.12-7.31-4.23-7.31-4.22-.84-.48-2.16-1.25-1.17-.67h0l-.89-.52-2.25-1.3L5,161.7V57.76l12.12-7,3.14-1.81h0l1.16-.67,1.83-1.07h0l1.16-.67L38.86,38.2M146.2,29.54V38l-7.31,4.22,3,1.74,4.31,2.49,14.62,8.44,6.4,3.69.91.52,7.31,4.22v92.86l-7.31,4.22-.91.52-6.4,3.69L146.2,173l-4.31,2.49-3,1.73-7.31,4.22-7.31,4.23-14.62,8.43-7.31,4.22V164.6L95,168.82l-7.31-4.22v33.75l-7.31-4.22L65.79,185.7l-7.31-4.23-7.31-4.22-3-1.73L43.86,173l-14.62-8.44-6.41-3.69-.9-.52-7.31-4.22V63.3l7.31-4.22.9-.52,6.41-3.69,14.62-8.44,4.3-2.49,3-1.74L43.86,38V29.54L21.93,42.2h0l-3,1.74h0l-4.29,2.49L0,54.87V164.59L14.62,173l2.25,1.3,1.42.83.62.36h0l3,1.73h0l7.31,4.22,7.31,4.23,7.31,4.22.37.22h0l6.93,4,.51.29,6.8,3.92h0l7.3,4.21h0l3.77,2.19,3.54,2h0L80.41,211,95,219.46,109.65,211,117,206.8h0l3.53-2,3.78-2.19h0l7.3-4.21h0l6.79-3.92.52-.29,6.92-4h0l.38-.22,7.31-4.22,7.31-4.23,7.31-4.22h0l3-1.73h0l.62-.36,1.43-.83,2.25-1.3,14.61-8.44V54.87l-14.61-8.44-4.3-2.49h0l-3-1.74h0L146.2,29.54Z"/><path class="cls-3" d="M131.58,21.1v8.44l-7.31,4.22-14.62-8.43-7.31-4.22v126.6L95,151.93l-7.31-4.22V21.11l-7.31,4.22L65.79,33.76l-7.31-4.22V21.1l7.3-4.21h0l3.77-2.19,3.54-2h0l7.31-4.22L95,0l14.62,8.44L117,12.66h0l3.53,2,3.78,2.19h0ZM73.1,46.43V173l-14.62-8.44V147.71L56,146.28l-4.82-2.79-7.31-4.22-7.31-4.22-5.89-3.39-1.42-.82V71.75l7.31-4.23,7.31-4.21,7.31-4.22.91-.53,6.4-3.69ZM58.48,71.75,56,73.18,51.17,76l-7.31,4.22v42.2l7.31,4.22,7.31,4.22Zm95-4.23-7.31-4.21v76l-7.31,4.22-4.83,2.79-2.48,1.43V54.87L117,46.43V173l14.62-8.44L138,160.9l.92-.53,7.31-4.22,7.31-4.22,7.31-4.22v-76Z"/><path class="cls-4" d="M262.38,75.92a23,23,0,0,1,8.11,8.57,24.5,24.5,0,0,1,3,12.07,24.75,24.75,0,0,1-3,12.12,22.79,22.79,0,0,1-8.11,8.61,21,21,0,0,1-11.21,3.15H233.4v25.24H219.09V72.78h32.08A21,21,0,0,1,262.38,75.92Zm-5.47,27.43a11.08,11.08,0,0,0-.05-13.53,7.19,7.19,0,0,0-5.69-2.73H233.4v19h17.77A7.21,7.21,0,0,0,256.91,103.35ZM325,75.92a23,23,0,0,1,8.11,8.57,24.5,24.5,0,0,1,3,12.07,24.75,24.75,0,0,1-3,12.12,22.79,22.79,0,0,1-8.11,8.61,21,21,0,0,1-11.21,3.15H296v25.24H281.69V72.78h32.08A21,21,0,0,1,325,75.92Zm-5.47,27.43a11.08,11.08,0,0,0-.05-13.53,7.19,7.19,0,0,0-5.69-2.73H296v19h17.77A7.21,7.21,0,0,0,319.51,103.35Zm74.9-30.57v14.4H376.1v58.5H361.7V87.18H343.38V72.78ZM460.93,119a26.84,26.84,0,0,1-3.74,13.89,27.93,27.93,0,0,1-10.07,10.07,26.84,26.84,0,0,1-13.89,3.74h-2.92a26.84,26.84,0,0,1-13.89-3.74,27.93,27.93,0,0,1-10.07-10.07A26.84,26.84,0,0,1,402.61,119V72.78h14.31V119a12.89,12.89,0,0,0,1.82,6.7,13.8,13.8,0,0,0,4.88,4.87,12.74,12.74,0,0,0,6.69,1.82h2.92a12.8,12.8,0,0,0,6.7-1.82,13.85,13.85,0,0,0,4.87-4.87,12.8,12.8,0,0,0,1.82-6.7V72.78h14.31Z"/></svg>
